<?xml version="1.0" encoding="utf-8"?>
<!-- Generator: Adobe Illustrator 23.0.5, SVG Export Plug-In . SVG Version: 6.00 Build 0)  -->
<svg version="1.1" id="Layer_1" xmlns="http://www.w3.org/2000/svg" xmlns:xlink="http://www.w3.org/1999/xlink" x="0px" y="0px"
	 viewBox="0 0 139.5 102.6" style="enable-background:new 0 0 139.5 102.6;" xml:space="preserve">
<style type="text/css">
	.st0{fill:#DB000E;}
	.st1{fill:#93D600;}
	.st2{fill:#FFFFFF;}
	.st3{fill:none;}
</style>
<g>
	<g>
		<path class="st3" d="M110.9,85.1c-0.5,0-1,0.2-1.4,0.5c-0.4,0.3-0.6,0.8-0.7,1.5h4c0-0.6-0.2-1.1-0.5-1.5
			C112,85.3,111.5,85.1,110.9,85.1z"/>
		<path class="st3" d="M77.8,88.2c0.1,0.1,0.3,0.3,0.5,0.6c0.5-0.3,0.8-0.5,1-0.7c0.2-0.2,0.3-0.4,0.3-0.7c0-0.3-0.1-0.5-0.3-0.7
			c-0.2-0.2-0.5-0.3-0.8-0.3c-0.3,0-0.6,0.1-0.8,0.3c-0.2,0.2-0.3,0.4-0.3,0.7c0,0.1,0,0.3,0.1,0.4C77.6,87.9,77.7,88,77.8,88.2z"/>
		<path class="st3" d="M78.8,92c-0.3-0.4-0.7-0.8-1.2-1.4c-0.5,0.3-0.8,0.5-1,0.8c-0.2,0.3-0.3,0.6-0.3,0.9c0,0.2,0,0.4,0.1,0.6
			c0.1,0.2,0.2,0.4,0.4,0.5c0.2,0.2,0.3,0.3,0.6,0.4c0.2,0.1,0.4,0.1,0.7,0.1c0.2,0,0.5,0,0.7-0.1c0.2-0.1,0.4-0.2,0.6-0.3
			c0.2-0.1,0.4-0.3,0.6-0.5C79.4,92.7,79.1,92.3,78.8,92z"/>
		<path class="st0" d="M54.7,16.4c2.5,0.9,5.3-0.4,6.3-2.9c0.9-2.5-0.4-5.3-2.9-6.3c-2.5-0.9-5.3,0.4-6.3,2.9
			C50.9,12.6,52.2,15.4,54.7,16.4z"/>
		<path class="st0" d="M28,16.4c2.5,0.9,5.3-0.4,6.3-2.9c0.9-2.5-0.4-5.3-2.9-6.3c-2.5-0.9-5.3,0.4-6.3,2.9
			C24.1,12.6,25.4,15.4,28,16.4z"/>
		<path class="st0" d="M41.3,16.4c2.5,0.9,5.3-0.4,6.3-2.9c0.9-2.5-0.4-5.3-2.9-6.3c-2.5-0.9-5.3,0.4-6.3,2.9
			C37.5,12.6,38.8,15.4,41.3,16.4z"/>
		<path class="st0" d="M67.5,68.5c-3.4-1.2-5.1-5-3.9-8.4l6.1-16.8l-7.3-19.9c-1.2-3.4-5-5.1-8.4-3.9c-1.9,0.7-3.3,2.2-3.9,3.9h0
			L43,43.3l-7.3-19.9c-1.2-3.4-5-5.1-8.4-3.9c-1.9,0.7-3.3,2.2-3.9,3.9L10.1,60.2c-1.2,3.4,0.5,7.1,3.9,8.4c3.4,1.2,7.1-0.5,8.4-3.9
			l7.3-19.9l7.2,19.9c1.2,3.4,5,5.1,8.4,3.9c1.9-0.7,3.3-2.1,3.9-3.9l7.3-19.9l7.2,19.9c1.1,3,4.1,4.7,7.1,4.2
			C69.7,69,68.6,68.9,67.5,68.5z"/>
		<path class="st0" d="M108.2,16.4c2.5,0.9,5.3-0.4,6.3-2.9c0.9-2.5-0.4-5.3-2.9-6.3c-2.5-0.9-5.3,0.4-6.3,2.9
			C104.4,12.6,105.7,15.5,108.2,16.4z"/>
		<path class="st0" d="M81.5,16.4c2.5,0.9,5.3-0.4,6.3-2.9c0.9-2.5-0.4-5.3-2.9-6.3c-2.5-0.9-5.3,0.4-6.3,2.9
			C77.7,12.6,79,15.5,81.5,16.4z"/>
		<path class="st0" d="M125.5,68.5c3.4-1.2,5.1-5,3.9-8.4L116,23.4c-1.2-3.4-5-5.1-8.4-3.9c-1.9,0.7-3.3,2.2-3.9,3.9l-7.3,19.9
			l-7.3-19.9c-1.2-3.4-5-5.1-8.4-3.9c-1.9,0.7-3.3,2.2-3.9,3.9l-7.2,19.9l-6.1,16.8c-1.2,3.4,0.5,7.1,3.9,8.4
			c1.1,0.4,2.1,0.5,3.2,0.3c2.3-0.3,4.3-1.9,5.2-4.2l7.3-19.9l7.3,19.9c1.2,3.4,5,5.1,8.4,3.9c1.9-0.7,3.3-2.2,3.9-3.9l7.3-19.9
			l7.2,19.9C118.4,68,122.1,69.8,125.5,68.5z"/>
		<path class="st1" d="M82.9,93.5c-0.4-0.3-0.6-0.5-0.8-0.7c0.3-0.4,0.5-0.8,0.6-1.2c0.1-0.4,0.2-0.6,0.2-0.8c0-0.2-0.1-0.4-0.2-0.6
			c-0.2-0.1-0.3-0.2-0.6-0.2c-0.2,0-0.4,0.1-0.5,0.2s-0.3,0.4-0.4,0.7c-0.1,0.3-0.2,0.6-0.3,0.7c-0.1-0.1-0.3-0.3-0.5-0.5
			c-0.2-0.2-0.4-0.4-0.6-0.7s-0.4-0.5-0.6-0.8c0.6-0.4,1.1-0.8,1.5-1.1c0.3-0.4,0.5-0.8,0.5-1.3c0-0.4-0.1-0.7-0.3-1.1
			c-0.2-0.3-0.5-0.6-0.9-0.8c-0.4-0.2-0.9-0.3-1.5-0.3c-0.6,0-1.1,0.1-1.5,0.3c-0.4,0.2-0.7,0.5-1,0.8c-0.2,0.3-0.3,0.7-0.3,1.1
			c0,0.3,0.1,0.7,0.3,1s0.4,0.7,0.8,1.1c-0.4,0.2-0.7,0.4-1,0.6c-0.3,0.2-0.5,0.4-0.7,0.6c-0.2,0.2-0.3,0.5-0.5,0.8
			c-0.1,0.3-0.2,0.6-0.2,0.9c0,0.3,0.1,0.7,0.2,1c0.1,0.3,0.4,0.6,0.7,0.9c0.3,0.3,0.7,0.5,1.1,0.7s1,0.2,1.5,0.2
			c0.4,0,0.8,0,1.2-0.1c0.4-0.1,0.7-0.2,1-0.4c0.3-0.2,0.6-0.4,0.9-0.7c0.6,0.5,1.1,0.9,1.3,1c0.2,0.1,0.4,0.2,0.6,0.2
			c0.2,0,0.4-0.1,0.6-0.2c0.2-0.2,0.3-0.3,0.3-0.6c0-0.2,0-0.3-0.1-0.4C83.5,94,83.3,93.8,82.9,93.5z M77.8,86.6
			c0.2-0.2,0.5-0.3,0.8-0.3c0.3,0,0.6,0.1,0.8,0.3c0.2,0.2,0.3,0.4,0.3,0.7c0,0.3-0.1,0.5-0.3,0.7c-0.2,0.2-0.5,0.4-1,0.7
			c-0.2-0.2-0.3-0.4-0.5-0.6c-0.1-0.2-0.2-0.3-0.3-0.5c-0.1-0.2-0.1-0.3-0.1-0.4C77.4,87,77.5,86.8,77.8,86.6z M79.2,93.6
			c-0.2,0.1-0.4,0.2-0.6,0.3C78.4,93.9,78.2,94,78,94c-0.2,0-0.5,0-0.7-0.1c-0.2-0.1-0.4-0.2-0.6-0.4c-0.2-0.2-0.3-0.3-0.4-0.5
			c-0.1-0.2-0.1-0.4-0.1-0.6c0-0.4,0.1-0.7,0.3-0.9c0.2-0.3,0.6-0.5,1-0.8c0.4,0.5,0.8,1,1.2,1.4c0.3,0.4,0.7,0.7,1.1,1.1
			C79.6,93.3,79.4,93.4,79.2,93.6z"/>
		<path class="st0" d="M68.1,88.4l1.6-3.2h0c0.1-0.3,0.2-0.6,0.2-0.9c0-1.1-0.9-2-2-2c-0.8,0-1.5,0.4-1.8,1.1l-1.8,3.8
			c-0.1,0.2-0.3,0.3-0.5,0.3c-0.3,0-0.5-0.2-0.6-0.5V84c-0.1-1-1-1.8-2.1-1.8c-1.2,0-2.1,0.9-2.1,2.1h0v9.1c0.1,1.1,1,1.9,2.1,1.9
			c1.1,0,2-0.9,2.1-2v-3.4c0-0.3,0.3-0.5,0.5-0.5h0c0.2,0,0.4,0.1,0.5,0.3l2.2,4.5c0.3,0.5,0.8,0.9,1.5,1c0.1,0,0.3,0,0.4,0
			c1.1,0,2-0.9,2-2c0-0.3-0.1-0.6-0.2-0.9L68.1,88.4z"/>
		<path class="st0" d="M16.1,84.3h5.6C23,84.1,24,83,24,81.7c0-1.5-1.2-2.7-2.7-2.7v0h-3.4c-1.2,0-2.3,0.2-3.4,0.5
			c-1.1,0.3-2,0.8-2.8,1.5c-0.8,0.7-1.4,1.5-1.9,2.5c-0.5,1-0.7,2.2-0.7,3.6c0,1.4,0.2,2.5,0.7,3.6c0.5,1,1.1,1.9,1.9,2.5
			c0.8,0.7,1.7,1.2,2.8,1.5c1.1,0.3,2.2,0.5,3.4,0.5h3.4v0c1.5,0,2.7-1.2,2.7-2.7c0-1.4-1-2.5-2.3-2.7h-5.6
			c-0.8-0.1-1.3-0.4-1.7-0.8c-0.9-1-0.9-2.9,0-3.9C14.8,84.7,15.3,84.4,16.1,84.3z"/>
		<path class="st0" d="M50.3,86.7h4.3c1-0.1,1.8-1,1.8-2.1c0-1.2-0.9-2.1-2.1-2.1v0h-2.6c-0.9,0-1.8,0.1-2.7,0.4s-1.5,0.7-2.2,1.2
			c-0.6,0.5-1.1,1.2-1.5,2c-0.4,0.8-0.5,1.7-0.5,2.8c0,1,0.2,2,0.5,2.8c0.4,0.8,0.8,1.5,1.5,2c0.6,0.5,1.3,0.9,2.2,1.2
			c0.8,0.3,1.7,0.4,2.7,0.4h2.6c1.2,0,2.1-0.9,2.1-2.1c0-1.1-0.8-1.9-1.8-2.1h-4.3c-0.6-0.1-1-0.3-1.3-0.6c-0.7-0.8-0.7-2.2,0-3
			C49.3,87,49.7,86.8,50.3,86.7z"/>
		<path class="st0" d="M37.6,73.2v-1.7c0-0.1-0.1-0.2-0.2-0.2c-0.1,0-0.2,0.1-0.2,0.2v1.7c0,0.1,0.1,0.2,0.2,0.2
			C37.5,73.4,37.6,73.3,37.6,73.2z"/>
		<path class="st0" d="M36.4,73.8c0.1-0.1,0.1-0.2,0-0.3l-1.2-1.2c-0.1-0.1-0.2-0.1-0.3,0c-0.1,0.1-0.1,0.2,0,0.3l1.2,1.2
			C36.2,73.9,36.3,73.9,36.4,73.8z"/>
		<path class="st0" d="M33.9,74.8c0,0.1,0.1,0.2,0.2,0.2l1.7,0c0.1,0,0.2-0.1,0.2-0.2c0-0.1-0.1-0.2-0.2-0.2l-1.7,0
			C34,74.6,33.9,74.7,33.9,74.8z"/>
		<path class="st0" d="M36.2,75.8L34.9,77c-0.1,0.1-0.1,0.2,0,0.3c0.1,0.1,0.2,0.1,0.3,0l1.2-1.2c0.1-0.1,0.1-0.2,0-0.3
			C36.3,75.7,36.2,75.7,36.2,75.8z"/>
		<path class="st0" d="M38.7,73.8l1.2-1.2c0.1-0.1,0.1-0.2,0-0.3c-0.1-0.1-0.2-0.1-0.3,0l-1.2,1.2c-0.1,0.1-0.1,0.2,0,0.3
			S38.6,73.9,38.7,73.8z"/>
		<path class="st0" d="M41.8,77.9l1.8-0.8c0,0,0.3-0.1,0.3-0.5c0-0.4-0.3-0.5-0.5-0.6c-0.2-0.1-5.9-1.8-5.9-1.8s-0.4-0.2-0.6,0.2
			c0,0-0.2,0.2-0.1,0.6c0.1,0.4,1.7,5.5,1.7,5.5s0.1,0.5,0.3,0.7c0.2,0.1,0.6,0.2,0.7,0c0.2-0.2,0.3-0.6,0.3-0.6l0.6-1.4l2,2
			c0,0,0.4,0.3,0.8,0.1c0.4-0.2,0.5-0.4,0.6-0.6c0.1-0.2,0.1-0.6-0.1-0.8C43.6,79.7,41.8,77.9,41.8,77.9z"/>
		<path class="st0" d="M34.3,91.7h-3.3v-7.5c-0.1-1-0.9-1.9-1.9-2c-0.1,0-0.1,0-0.2,0c-0.1,0-0.2,0-0.2,0c-1,0.1-1.8,0.9-1.9,1.9
			v7.5v1.8c0.1,0.6,0.4,1.7,1.9,1.7h5.5c0.9,0,1.7-0.7,1.7-1.6c0,0,0-0.1,0-0.1c0-0.1,0-0.1,0-0.2C36,92.4,35.2,91.7,34.3,91.7z"/>
		<path class="st0" d="M40.6,82.2c-0.1,0-0.1,0-0.2,0c-0.1,0-0.2,0-0.2,0c-1,0.1-1.8,0.9-1.9,1.9v3.5v2v3.5c0.1,1,0.9,1.9,1.9,2
			c0.1,0,0.1,0,0.2,0c0.1,0,0.2,0,0.2,0c1-0.1,1.8-0.9,1.9-1.9v-3.5v-2v-3.5C42.5,83.2,41.7,82.3,40.6,82.2z"/>
		<path class="st1" d="M128.5,82.5L128.5,82.5l-8.4,0v0c-0.9,0-1.7,0.7-1.7,1.6c0,0,0,0.1,0,0.1c0,0.1,0,0.1,0,0.2
			c0.1,0.9,0.8,1.6,1.7,1.6h2.2v7.5c0.1,1,0.9,1.9,1.9,2c0.1,0,0.1,0,0.2,0c0.1,0,0.2,0,0.2,0c1-0.1,1.8-0.9,1.9-1.9V86h2.1
			c0.9,0,1.7-0.8,1.7-1.8C130.2,83.3,129.4,82.5,128.5,82.5z"/>
		<path class="st1" d="M115.1,83.6c-0.5-0.5-1.1-0.9-1.7-1.2c-0.7-0.3-1.5-0.4-2.3-0.4c-1.1,0-2,0.2-2.8,0.5c-0.8,0.4-1.5,0.8-2,1.5
			c-0.5,0.6-0.9,1.3-1.2,2.2s-0.4,1.7-0.4,2.7c0,1,0.1,1.8,0.4,2.7c0.3,0.8,0.7,1.5,1.2,2.1c0.5,0.6,1.2,1,2.1,1.4
			c0.8,0.3,1.9,0.5,3.1,0.5c1,0,2-0.1,3-0.4v0c0.8-0.2,1.3-0.9,1.3-1.7c0-1-0.8-1.8-1.8-1.8c-0.1,0-0.1,0-0.1,0
			c-0.2,0-0.4,0.1-0.6,0.1c-0.6,0.1-1.1,0.2-1.6,0.2c-0.7,0-1.3-0.1-1.8-0.4c-0.5-0.3-0.8-0.8-1-1.4h5.9c1,0,1.7-0.8,1.7-1.8h0
			c0-0.1,0-0.2,0-0.3c0-0.9-0.1-1.7-0.4-2.4C116,84.8,115.6,84.2,115.1,83.6z M108.9,87.1c0.1-0.7,0.3-1.2,0.7-1.5
			c0.4-0.3,0.8-0.5,1.4-0.5c0.6,0,1.1,0.2,1.4,0.6c0.3,0.4,0.5,0.9,0.5,1.5H108.9z"/>
		<path class="st1" d="M99.9,85.9c-0.1,0-0.3,0-0.4,0v0h-2.3c-0.5,0-1,0.2-1.3,0.5c-0.3,0.3-0.5,0.8-0.5,1.3c0,0.6,0.2,1,0.5,1.4
			c0.2,0.2,0.5,0.4,0.8,0.5h0.8v1.8c0,0-3.4,0.5-4.5-1c-0.5-0.7-1.1-1.4-1-3.2c0-1.2,0.6-2.6,0.8-3c1.4-2.2,4.8-1.3,5.4-1.2
			c0.1,0,0.1,0,0.2,0c0.1,0,0.3,0.1,0.5,0.1c1.3,0,2.3-1,2.3-2.3c0-1.1-0.7-2-1.7-2.2c-0.3-0.1-0.6-0.2-0.9-0.2
			c-0.9-0.2-1.9-0.3-2.6-0.2c-1.7,0.1-2.6,0.2-3.7,0.6c-1.1,0.5-2,1.1-2.8,1.9c-0.8,0.8-1.3,1.7-1.7,2.8c-0.4,1.1-0.6,2.2-0.6,3.4
			c0,1.2,0.2,2.4,0.5,3.5c0.3,1.1,0.8,2,1.5,2.8c0.7,0.8,1.6,1.4,2.7,1.9c1.1,0.5,2.4,0.7,4,0.7c1.5,0,2.8-0.1,3.9-0.4
			c0.3-0.1,0.7-0.2,1-0.3v0c1-0.3,1.7-1.1,1.7-2.2v-4.3C102.4,87.1,101.4,85.9,99.9,85.9z"/>
	</g>
</g>
</svg>
