<svg width="25" height="20" viewBox="0 0 25 20" fill="none" xmlns="http://www.w3.org/2000/svg">
<path d="M23.3333 0H1.66667C1.22464 0 0.800716 0.170717 0.488155 0.474595C0.175595 0.778474 0 1.19062 0 1.62037V17.8241C0 18.2538 0.175595 18.666 0.488155 18.9698C0.800716 19.2737 1.22464 19.4444 1.66667 19.4444H23.3333C23.7754 19.4444 24.1993 19.2737 24.5118 18.9698C24.8244 18.666 25 18.2538 25 17.8241V1.62037C25 1.19062 24.8244 0.778474 24.5118 0.474595C24.1993 0.170717 23.7754 0 23.3333 0ZM22.5 13.6921C22.0364 13.6304 21.5644 13.6739 21.121 13.819C20.6775 13.9641 20.2746 14.207 19.9438 14.5286C19.6129 14.8503 19.3631 15.242 19.2138 15.6732C19.0645 16.1043 19.0199 16.5632 19.0833 17.0139H5.91667C5.98012 16.5632 5.93547 16.1043 5.7862 15.6732C5.63694 15.242 5.3871 14.8503 5.05625 14.5286C4.72539 14.207 4.32247 13.9641 3.87902 13.819C3.43556 13.6739 2.96358 13.6304 2.5 13.6921V5.75231C2.96358 5.81401 3.43556 5.77059 3.87902 5.62547C4.32247 5.48035 4.72539 5.23746 5.05625 4.91579C5.3871 4.59413 5.63694 4.2024 5.7862 3.77127C5.93547 3.34013 5.98012 2.88126 5.91667 2.43056H19.0833C19.0199 2.88126 19.0645 3.34013 19.2138 3.77127C19.3631 4.2024 19.6129 4.59413 19.9438 4.91579C20.2746 5.23746 20.6775 5.48035 21.121 5.62547C21.5644 5.77059 22.0364 5.81401 22.5 5.75231V13.6921ZM12.5 4.86111C10.2 4.86111 8.33333 7.04051 8.33333 9.72222C8.33333 12.4039 10.2 14.5833 12.5 14.5833C14.8 14.5833 16.6667 12.4039 16.6667 9.72222C16.6667 7.04051 14.8 4.86111 12.5 4.86111Z" fill="#52A4E7"/>
</svg>
