<?xml version="1.0" encoding="utf-8"?>
<svg height="25" version="1.2" viewBox="0 0 266 266" width="25" xmlns="http://www.w3.org/2000/svg">
<title>Zalopay_logo</title>
<style>
		.s0 { fill: #0033c9 } 
		.s1 { fill: #00cf6a } 
	</style>
<g id="Layer 1">
<g id="&lt;Group&gt;">
<path class="s0" d="m69.1 41.5c2.1-2.8 2.4-6.5 0.9-9.6-1.6-3.1-4.7-5-8.1-5h-61.5v17.7h44.2l-42.2 56.2c-2 2.8-2.4 6.5-0.8 9.6 1.5 3.1 4.7 5 8.1 5h61.5v-17.7h-44.2z" id="&lt;Path&gt;"/>
<path class="s0" d="m265.1 80c0 19.5-15.9 35.4-35.4 35.4-19.6 0-35.4-15.9-35.4-35.4 0-19.5 15.8-35.4 35.4-35.4 19.5 0 35.4 15.9 35.4 35.4zm-17.8 0c0-9.7-7.9-17.7-17.6-17.7-9.8 0-17.7 8-17.7 17.7 0 9.7 7.9 17.7 17.7 17.7 9.7 0 17.6-8 17.6-17.7z" fill-rule="evenodd" id="&lt;Compound Path&gt;"/>
<g id="&lt;Group&gt;">
<g id="&lt;Group&gt;">
<path class="s1" d="m71.2 177.4c0 19.5-15.9 35.4-35.4 35.4-6.4 0-12.5-1.8-17.7-4.8v31.3h-17.7v-61.9c0-19.5 15.9-35.4 35.4-35.4 19.5 0 35.4 15.9 35.4 35.4zm-17.7 0c0-9.8-8-17.7-17.7-17.7-9.7 0-17.7 7.9-17.7 17.7 0 9.7 8 17.6 17.7 17.6 9.7 0 17.7-7.9 17.7-17.6z" fill-rule="evenodd" id="&lt;Compound Path&gt;"/>
</g>
</g>
<g id="&lt;Group&gt;">
<path class="s1" d="m211.1 142l-18.8 44-17.9-44h-19.2l27.3 66.9-13 30.4h19.2l41.7-97.3z" id="&lt;Path&gt;"/>
</g>
<path class="s0" d="m157.3 97.7v17.7h-6.2c-7.1 0-13.4-3.7-17-9.2-6 5.7-13.9 9.2-22.6 9.2-18.6 0-33.7-15.8-33.7-35.4 0-19.5 15.1-35.3 33.7-35.3 7.2 0 13.8 2.4 19.3 6.4v-6.5h17.7v53.1zm-26.6-17.7q0 0 0 0 0 0 0 0c0-9.7-7.9-17.6-17.6-17.6-9.7 0-17.6 7.9-17.6 17.6 0 9.8 7.9 17.7 17.6 17.7 9.7 0 17.6-7.9 17.6-17.7z" fill-rule="evenodd" id="&lt;Compound Path&gt;"/>
<g id="&lt;Group&gt;">
<g id="&lt;Group&gt;">
<path class="s1" d="m157.3 195v17.8h-6.2c-7.1 0-13.4-3.7-17-9.2-6 5.7-13.9 9.2-22.6 9.2-18.6 0-33.7-15.9-33.7-35.4 0-19.5 15.1-35.3 33.7-35.3 7.2 0 13.8 2.3 19.3 6.3v-6.4h17.7v53zm-26.6-17.6q0 0 0 0 0 0 0 0c0-9.7-7.9-17.6-17.6-17.6-9.7 0-17.6 7.9-17.6 17.6 0 9.7 7.9 17.6 17.6 17.6 9.7 0 17.6-7.9 17.6-17.6z" fill-rule="evenodd" id="&lt;Compound Path&gt;"/>
</g>
</g>
<path class="s0" d="m181.8 97.6v-70.7h-17.7v68.2c0 11.2 9 20.3 20.3 20.3h6.3v-17.8z" id="&lt;Path&gt;"/>
</g>
</g>
</svg>